<?xml version="1.0" standalone="no"?><!-- Generator: Gravit.io --><svg xmlns="http://www.w3.org/2000/svg" xmlns:xlink="http://www.w3.org/1999/xlink" style="isolation:isolate" viewBox="320.5 397.798 80 113.868" width="80" height="113.868"><g id="home_btn"><path d=" M 360.5 397.798 C 338.44 397.798 320.5 415.738 320.5 437.798 C 320.5 459.858 338.44 477.798 360.5 477.798 C 382.56 477.798 400.5 459.858 400.5 437.798 C 400.5 415.738 382.56 397.798 360.5 397.798 Z  M 351.409 423.252 L 369.591 423.252 C 372.595 423.252 375.045 425.703 375.045 428.707 L 375.045 446.889 C 375.045 449.892 372.595 452.343 369.591 452.343 L 351.409 452.343 C 348.405 452.343 345.955 449.892 345.955 446.889 L 345.955 428.707 C 345.955 425.703 348.405 423.252 351.409 423.252 Z  M 351.409 426.889 C 350.409 426.889 349.591 427.707 349.591 428.707 L 349.591 446.889 C 349.591 447.889 350.409 448.707 351.409 448.707 L 369.591 448.707 C 370.591 448.707 371.409 447.889 371.409 446.889 L 371.409 428.707 C 371.409 427.707 370.591 426.889 369.591 426.889 L 351.409 426.889 Z " fill="rgb(255,255,255)"/><path d=" M 341.76 492.707 L 342.177 511.275 L 335.667 511.588 L 335.615 505.572 L 332.62 505.572 L 332.438 511.275 L 326.604 511.275 L 327.099 492.968 L 333.297 493.254 L 332.906 502.603 L 335.797 502.603 L 335.823 492.551 L 341.76 492.707 Z  M 359.508 502.082 L 359.508 502.082 L 359.508 502.082 Q 359.508 503.267 359.234 504.368 L 359.234 504.368 L 359.234 504.368 Q 358.961 505.468 358.447 506.431 L 358.447 506.431 L 358.447 506.431 Q 357.932 507.395 357.197 508.196 L 357.197 508.196 L 357.197 508.196 Q 356.461 508.996 355.543 509.569 L 355.543 509.569 L 355.543 509.569 Q 354.625 510.142 353.544 510.461 L 353.544 510.461 L 353.544 510.461 Q 352.464 510.78 351.253 510.78 L 351.253 510.78 L 351.253 510.78 Q 350.081 510.78 349.02 510.481 L 349.02 510.481 L 349.02 510.481 Q 347.958 510.181 347.034 509.641 L 347.034 509.641 L 347.034 509.641 Q 346.109 509.101 345.361 508.339 L 345.361 508.339 L 345.361 508.339 Q 344.612 507.577 344.085 506.646 L 344.085 506.646 L 344.085 506.646 Q 343.557 505.715 343.264 504.648 L 343.264 504.648 L 343.264 504.648 Q 342.971 503.58 342.971 502.421 L 342.971 502.421 L 342.971 502.421 Q 342.971 501.288 343.245 500.201 L 343.245 500.201 L 343.245 500.201 Q 343.518 499.114 344.033 498.15 L 344.033 498.15 L 344.033 498.15 Q 344.547 497.187 345.276 496.379 L 345.276 496.379 L 345.276 496.379 Q 346.005 495.572 346.91 494.986 L 346.91 494.986 L 346.91 494.986 Q 347.815 494.4 348.87 494.075 L 348.87 494.075 L 348.87 494.075 Q 349.924 493.749 351.096 493.749 L 351.096 493.749 L 351.096 493.749 Q 352.984 493.749 354.54 494.335 L 354.54 494.335 L 354.54 494.335 Q 356.096 494.921 357.197 496.008 L 357.197 496.008 L 357.197 496.008 Q 358.297 497.095 358.902 498.638 L 358.902 498.638 L 358.902 498.638 Q 359.508 500.181 359.508 502.082 Z  M 353.727 502.421 L 353.727 502.421 L 353.727 502.421 Q 353.727 501.861 353.564 501.334 L 353.564 501.334 L 353.564 501.334 Q 353.401 500.806 353.089 500.396 L 353.089 500.396 L 353.089 500.396 Q 352.776 499.986 352.314 499.732 L 352.314 499.732 L 352.314 499.732 Q 351.852 499.478 351.253 499.478 L 351.253 499.478 L 351.253 499.478 Q 350.641 499.478 350.159 499.7 L 350.159 499.7 L 350.159 499.7 Q 349.677 499.921 349.332 500.305 L 349.332 500.305 L 349.332 500.305 Q 348.987 500.689 348.805 501.204 L 348.805 501.204 L 348.805 501.204 Q 348.622 501.718 348.622 502.291 L 348.622 502.291 L 348.622 502.291 Q 348.622 502.838 348.779 503.384 L 348.779 503.384 L 348.779 503.384 Q 348.935 503.931 349.247 504.374 L 349.247 504.374 L 349.247 504.374 Q 349.56 504.817 350.022 505.09 L 350.022 505.09 L 350.022 505.09 Q 350.484 505.364 351.096 505.364 L 351.096 505.364 L 351.096 505.364 Q 351.708 505.364 352.197 505.123 L 352.197 505.123 L 352.197 505.123 Q 352.685 504.882 353.023 504.472 L 353.023 504.472 L 353.023 504.472 Q 353.362 504.062 353.544 503.528 L 353.544 503.528 L 353.544 503.528 Q 353.727 502.994 353.727 502.421 Z  M 373.544 492.291 L 380.549 492.291 L 379.352 511.405 L 373.414 511.666 L 373.466 501.588 L 370.784 509.713 L 368.492 509.713 L 366.435 502.447 L 366.409 510.884 L 360.393 511.067 L 360.654 493.072 L 367.346 492.812 L 370.003 501.431 L 373.544 492.291 Z  M 381.826 492.499 L 393.831 492.499 L 393.831 492.499 Q 393.753 493.723 393.688 494.921 L 393.688 494.921 L 393.688 494.921 Q 393.622 496.119 393.518 497.343 L 393.518 497.343 L 387.997 497.629 L 387.867 499.27 L 391.747 499.27 L 391.461 503.306 L 387.555 503.437 L 387.424 505.338 L 390.654 505.338 L 392.945 505.338 L 392.945 505.338 Q 392.867 506.77 392.783 508.183 L 392.783 508.183 L 392.783 508.183 Q 392.698 509.595 392.633 511.015 L 392.633 511.015 L 381.409 511.275 L 381.826 492.499 Z " fill-rule="evenodd" fill="rgb(255,255,255)"/></g></svg>