<?xml version="1.0" standalone="no"?><!-- Generator: Gravit.io --><svg xmlns="http://www.w3.org/2000/svg" xmlns:xlink="http://www.w3.org/1999/xlink" style="isolation:isolate" viewBox="496 407.798 60 96.13" width="60" height="96.13"><g id="next_btn"><path d=" M 496 437.798 C 496 421.24 509.443 407.798 526 407.798 C 542.557 407.798 556 421.24 556 437.798 C 556 454.355 542.557 467.798 526 467.798 C 509.443 467.798 496 454.355 496 437.798 Z  M 534.17 440.103 L 537.401 436.822 L 534.17 433.541 L 522.632 421.822 L 519.401 425.103 L 530.939 436.822 L 519.401 448.541 L 522.632 451.822 L 534.17 440.103 Z " fill="rgb(255,255,255)"/><path d=" M 508.636 487.31 L 514.168 487.123 L 513.324 503.013 L 507.183 503.576 L 503.902 495.068 L 503.386 503.74 L 498.113 503.74 L 498.535 487.123 L 504.394 486.841 L 508.449 495.279 L 508.636 487.31 Z  M 515.41 487.029 L 526.214 487.029 L 526.214 487.029 Q 526.144 488.131 526.086 489.209 L 526.086 489.209 L 526.086 489.209 Q 526.027 490.287 525.933 491.388 L 525.933 491.388 L 520.964 491.646 L 520.847 493.123 L 524.339 493.123 L 524.082 496.756 L 520.566 496.873 L 520.449 498.584 L 523.355 498.584 L 525.418 498.584 L 525.418 498.584 Q 525.347 499.873 525.271 501.144 L 525.271 501.144 L 525.271 501.144 Q 525.195 502.416 525.136 503.693 L 525.136 503.693 L 515.035 503.927 L 515.41 487.029 Z  M 535.191 486.841 L 540.722 487.498 L 536.152 495.443 L 540.043 502.357 L 535.144 503.881 L 533.035 499.099 L 530.55 503.904 L 525.488 502.076 L 529.8 495.279 L 525.863 488.131 L 531.23 486.841 L 533.152 491.552 L 535.191 486.841 Z  M 540.347 487.193 L 553.121 487.17 L 553.004 492.138 L 549.511 492.279 L 548.621 503.388 L 543.675 503.646 L 543.699 492.537 L 540.207 492.724 L 540.347 487.193 Z " fill-rule="evenodd" fill="rgb(255,255,255)"/></g></svg>