<?xml version="1.0" standalone="no"?><!-- Generator: Gravit.io --><svg xmlns="http://www.w3.org/2000/svg" xmlns:xlink="http://www.w3.org/1999/xlink" style="isolation:isolate" viewBox="150 123 113.751 197.469" width="113.751" height="197.469"><g id="playall_btn"><path d=" M 168.829 123 L 168.829 127.122 L 243.021 127.122 L 243.021 123 L 168.829 123 Z " fill-rule="evenodd" fill="rgb(255,255,255)"/><path d=" M 164.707 131.244 L 164.707 135.365 L 247.143 135.365 L 247.143 131.244 L 164.707 131.244 Z " fill-rule="evenodd" fill="rgb(255,255,255)"/><path d=" M 189.523 286.416 L 198.942 318.923 L 186.963 320.469 L 185.514 315.011 L 180.008 315.011 L 178.8 320.469 L 166.483 319.261 L 176.095 287.092 L 189.523 286.416 Z  M 181.022 307.62 L 184.645 307.62 L 182.809 299.216 L 181.022 307.62 Z  M 220.678 307.234 L 220.678 307.234 L 219.664 317.957 L 199.329 319.551 L 199.329 319.551 Q 199.473 311.122 199.655 302.79 L 199.655 302.79 L 199.655 302.79 Q 199.836 294.458 200.101 286.029 L 200.101 286.029 L 212.66 286.029 L 212.66 286.029 Q 212.104 291.318 211.597 296.595 L 211.597 296.595 L 211.597 296.595 Q 211.09 301.872 210.873 307.234 L 210.873 307.234 L 210.873 307.234 Q 212.008 307.282 213.119 307.282 L 213.119 307.282 L 213.119 307.282 Q 214.23 307.282 215.365 307.282 L 215.365 307.282 L 215.365 307.282 Q 216.717 307.282 218.021 307.258 L 218.021 307.258 L 218.021 307.258 Q 219.326 307.234 220.678 307.234 Z  M 243.042 307.234 L 243.042 307.234 L 242.028 317.957 L 221.692 319.551 L 221.692 319.551 Q 221.837 311.122 222.018 302.79 L 222.018 302.79 L 222.018 302.79 Q 222.2 294.458 222.465 286.029 L 222.465 286.029 L 235.024 286.029 L 235.024 286.029 Q 234.468 291.318 233.961 296.595 L 233.961 296.595 L 233.961 296.595 Q 233.454 301.872 233.237 307.234 L 233.237 307.234 L 233.237 307.234 Q 234.372 307.282 235.483 307.282 L 235.483 307.282 L 235.483 307.282 Q 236.594 307.282 237.729 307.282 L 237.729 307.282 L 237.729 307.282 Q 239.081 307.282 240.385 307.258 L 240.385 307.258 L 240.385 307.258 Q 241.689 307.234 243.042 307.234 Z  M 178.064 248.305 L 178.064 248.305 L 178.064 248.305 Q 178.064 250.648 177.363 252.459 L 177.363 252.459 L 177.363 252.459 Q 176.663 254.271 175.443 255.623 L 175.443 255.623 L 175.443 255.623 Q 174.224 256.976 172.581 257.917 L 172.581 257.917 L 172.581 257.917 Q 170.939 258.859 169.067 259.451 L 169.067 259.451 L 169.067 259.451 Q 167.196 260.043 165.191 260.32 L 165.191 260.32 L 165.191 260.32 Q 163.186 260.598 161.254 260.622 L 161.254 260.622 L 161.254 271.877 L 150 271.877 L 150 271.877 Q 150 266.346 150.024 260.864 L 150.024 260.864 L 150.024 260.864 Q 150.048 255.382 150.097 249.803 L 150.097 249.803 L 150.097 249.803 Q 150.145 246.856 150.121 243.91 L 150.121 243.91 L 150.121 243.91 Q 150.097 240.963 150.242 237.969 L 150.242 237.969 L 150.242 237.969 Q 153.333 237.051 156.424 236.592 L 156.424 236.592 L 156.424 236.592 Q 159.516 236.133 162.8 236.133 L 162.8 236.133 L 162.8 236.133 Q 164.66 236.133 166.519 236.435 L 166.519 236.435 L 166.519 236.435 Q 168.379 236.737 170.082 237.389 L 170.082 237.389 L 170.082 237.389 Q 171.784 238.041 173.245 239.019 L 173.245 239.019 L 173.245 239.019 Q 174.707 239.997 175.769 241.35 L 175.769 241.35 L 175.769 241.35 Q 176.832 242.702 177.448 244.429 L 177.448 244.429 L 177.448 244.429 Q 178.064 246.156 178.064 248.305 Z  M 167.34 249.126 L 167.34 249.126 L 167.34 249.126 Q 167.34 247.557 166.386 246.675 L 166.386 246.675 L 166.386 246.675 Q 165.433 245.794 163.911 245.794 L 163.911 245.794 L 163.911 245.794 Q 163.404 245.794 162.86 245.878 L 162.86 245.878 L 162.86 245.878 Q 162.317 245.963 161.834 246.083 L 161.834 246.083 L 161.544 253.136 L 161.544 253.136 Q 161.882 253.184 162.196 253.184 L 162.196 253.184 L 162.196 253.184 Q 162.51 253.184 162.848 253.184 L 162.848 253.184 L 162.848 253.184 Q 163.718 253.184 164.527 252.894 L 164.527 252.894 L 164.527 252.894 Q 165.336 252.604 165.964 252.061 L 165.964 252.061 L 165.964 252.061 Q 166.592 251.517 166.966 250.781 L 166.966 250.781 L 166.966 250.781 Q 167.34 250.044 167.34 249.126 Z  M 200.621 257.773 L 200.621 257.773 L 199.606 268.496 L 179.271 270.09 L 179.271 270.09 Q 179.416 261.661 179.597 253.329 L 179.597 253.329 L 179.597 253.329 Q 179.778 244.997 180.044 236.568 L 180.044 236.568 L 192.602 236.568 L 192.602 236.568 Q 192.047 241.857 191.54 247.134 L 191.54 247.134 L 191.54 247.134 Q 191.033 252.411 190.815 257.773 L 190.815 257.773 L 190.815 257.773 Q 191.95 257.821 193.061 257.821 L 193.061 257.821 L 193.061 257.821 Q 194.172 257.821 195.307 257.821 L 195.307 257.821 L 195.307 257.821 Q 196.66 257.821 197.964 257.797 L 197.964 257.797 L 197.964 257.797 Q 199.268 257.773 200.621 257.773 Z  M 222.791 236.954 L 232.21 269.462 L 220.231 271.007 L 218.782 265.549 L 213.276 265.549 L 212.068 271.007 L 199.751 269.8 L 209.363 237.631 L 222.791 236.954 Z  M 214.29 258.159 L 217.913 258.159 L 216.077 249.754 L 214.29 258.159 Z  M 252.159 238.017 L 263.751 238.838 L 250.468 257.386 L 249.84 272.505 L 238.393 272.505 L 238.683 257.483 L 231.775 239.563 L 244.093 238.017 L 246.025 248.45 L 252.159 238.017 Z " fill-rule="evenodd" fill="rgb(255,255,255)"/><rect x="160.998" y="139.487" width="34.31" height="65.948" transform="matrix(1,0,0,1,0,0)" fill="rgb(255,255,255)"/><path d=" M 251.677 139.487 L 251.677 205.436 L 193.972 205.436 L 193.972 184.827 L 220.351 173.286 L 193.972 160.096 L 193.972 139.487 L 251.677 139.487 Z " fill="rgb(255,255,255)"/></g></svg>