<?xml version="1.0" standalone="no"?><!-- Generator: Gravit.io --><svg xmlns="http://www.w3.org/2000/svg" xmlns:xlink="http://www.w3.org/1999/xlink" style="isolation:isolate" viewBox="164 407.798 60 96.34" width="60" height="96.34"><g id="prev_btn"><path d=" M 224 437.798 C 224 421.24 210.557 407.798 194 407.798 C 177.443 407.798 164 421.24 164 437.798 C 164 454.355 177.443 467.798 194 467.798 C 210.557 467.798 224 454.355 224 437.798 Z  M 181.999 436.822 L 196.768 421.822 L 199.999 425.103 L 188.461 436.822 L 199.999 448.541 L 196.768 451.822 L 181.999 436.822 Z " fill="rgb(255,255,255)"/><path d=" M 180.129 492.654 L 180.129 492.654 L 180.129 492.654 Q 180.129 493.791 179.789 494.67 L 179.789 494.67 L 179.789 494.67 Q 179.449 495.548 178.857 496.205 L 178.857 496.205 L 178.857 496.205 Q 178.265 496.861 177.468 497.318 L 177.468 497.318 L 177.468 497.318 Q 176.671 497.775 175.763 498.062 L 175.763 498.062 L 175.763 498.062 Q 174.855 498.349 173.882 498.484 L 173.882 498.484 L 173.882 498.484 Q 172.91 498.619 171.972 498.631 L 171.972 498.631 L 171.972 504.091 L 166.511 504.091 L 166.511 504.091 Q 166.511 501.408 166.523 498.748 L 166.523 498.748 L 166.523 498.748 Q 166.535 496.088 166.558 493.381 L 166.558 493.381 L 166.558 493.381 Q 166.582 491.951 166.57 490.521 L 166.57 490.521 L 166.57 490.521 Q 166.558 489.091 166.629 487.638 L 166.629 487.638 L 166.629 487.638 Q 168.129 487.193 169.629 486.97 L 169.629 486.97 L 169.629 486.97 Q 171.129 486.748 172.722 486.748 L 172.722 486.748 L 172.722 486.748 Q 173.625 486.748 174.527 486.894 L 174.527 486.894 L 174.527 486.894 Q 175.429 487.041 176.255 487.357 L 176.255 487.357 L 176.255 487.357 Q 177.082 487.673 177.791 488.148 L 177.791 488.148 L 177.791 488.148 Q 178.5 488.623 179.015 489.279 L 179.015 489.279 L 179.015 489.279 Q 179.531 489.935 179.83 490.773 L 179.83 490.773 L 179.83 490.773 Q 180.129 491.611 180.129 492.654 Z  M 174.925 493.052 L 174.925 493.052 L 174.925 493.052 Q 174.925 492.291 174.462 491.863 L 174.462 491.863 L 174.462 491.863 Q 174 491.435 173.261 491.435 L 173.261 491.435 L 173.261 491.435 Q 173.015 491.435 172.752 491.476 L 172.752 491.476 L 172.752 491.476 Q 172.488 491.517 172.254 491.576 L 172.254 491.576 L 172.113 494.998 L 172.113 494.998 Q 172.277 495.021 172.429 495.021 L 172.429 495.021 L 172.429 495.021 Q 172.582 495.021 172.746 495.021 L 172.746 495.021 L 172.746 495.021 Q 173.168 495.021 173.56 494.881 L 173.56 494.881 L 173.56 494.881 Q 173.953 494.74 174.257 494.476 L 174.257 494.476 L 174.257 494.476 Q 174.562 494.213 174.744 493.855 L 174.744 493.855 L 174.744 493.855 Q 174.925 493.498 174.925 493.052 Z  M 194.507 492.631 L 194.507 492.631 L 194.507 492.631 Q 194.507 493.545 194.349 494.289 L 194.349 494.289 L 194.349 494.289 Q 194.191 495.033 193.851 495.654 L 193.851 495.654 L 193.851 495.654 Q 193.511 496.275 192.972 496.802 L 192.972 496.802 L 192.972 496.802 Q 192.433 497.33 191.671 497.81 L 191.671 497.81 L 194.461 502.779 L 189.187 503.81 L 187.382 498.818 L 185.929 498.865 L 185.718 503.74 L 180.679 503.74 L 180.679 503.74 Q 180.738 501.068 180.791 498.42 L 180.791 498.42 L 180.791 498.42 Q 180.843 495.771 180.914 493.099 L 180.914 493.099 L 180.914 493.099 Q 180.937 491.752 180.961 490.427 L 180.961 490.427 L 180.961 490.427 Q 180.984 489.103 181.054 487.756 L 181.054 487.756 L 181.054 487.756 Q 181.875 487.451 182.671 487.252 L 182.671 487.252 L 182.671 487.252 Q 183.468 487.052 184.271 486.941 L 184.271 486.941 L 184.271 486.941 Q 185.074 486.83 185.9 486.789 L 185.9 486.789 L 185.9 486.789 Q 186.726 486.748 187.593 486.748 L 187.593 486.748 L 187.593 486.748 Q 188.929 486.748 190.177 487.117 L 190.177 487.117 L 190.177 487.117 Q 191.425 487.486 192.386 488.224 L 192.386 488.224 L 192.386 488.224 Q 193.347 488.963 193.927 490.064 L 193.927 490.064 L 193.927 490.064 Q 194.507 491.166 194.507 492.631 Z  M 189.257 493.006 L 189.257 493.006 L 189.257 493.006 Q 189.257 492.513 189.123 492.103 L 189.123 492.103 L 189.123 492.103 Q 188.988 491.693 188.724 491.394 L 188.724 491.394 L 188.724 491.394 Q 188.461 491.095 188.068 490.925 L 188.068 490.925 L 188.068 490.925 Q 187.675 490.756 187.148 490.756 L 187.148 490.756 L 187.148 490.756 Q 186.914 490.756 186.691 490.785 L 186.691 490.785 L 186.691 490.785 Q 186.468 490.814 186.257 490.873 L 186.257 490.873 L 186.07 495.232 L 186.351 495.232 L 186.351 495.232 Q 186.855 495.232 187.377 495.103 L 187.377 495.103 L 187.377 495.103 Q 187.898 494.974 188.314 494.705 L 188.314 494.705 L 188.314 494.705 Q 188.73 494.435 188.994 494.013 L 188.994 494.013 L 188.994 494.013 Q 189.257 493.591 189.257 493.006 Z  M 195.609 487.029 L 206.414 487.029 L 206.414 487.029 Q 206.343 488.131 206.285 489.209 L 206.285 489.209 L 206.285 489.209 Q 206.226 490.287 206.132 491.388 L 206.132 491.388 L 201.164 491.646 L 201.046 493.123 L 204.539 493.123 L 204.281 496.756 L 200.765 496.873 L 200.648 498.584 L 203.554 498.584 L 205.617 498.584 L 205.617 498.584 Q 205.546 499.873 205.47 501.144 L 205.47 501.144 L 205.47 501.144 Q 205.394 502.416 205.336 503.693 L 205.336 503.693 L 195.234 503.927 L 195.609 487.029 Z  M 215.754 487.146 L 221.144 487.498 L 216.855 503.81 L 211.043 504.138 L 205.769 487.662 L 211.324 487.146 L 213.574 496.756 L 215.754 487.146 Z " fill-rule="evenodd" fill="rgb(255,255,255)"/></g></svg>