<?xml version="1.0" standalone="no"?><!-- Generator: Gravit.io --><svg xmlns="http://www.w3.org/2000/svg" xmlns:xlink="http://www.w3.org/1999/xlink" style="isolation:isolate" viewBox="454 123 147.563 198" width="147.563" height="198"><g id="select_btn"><path d=" M 487.11 164.218 C 487.11 141.454 505.564 123 528.328 123 C 551.092 123 569.546 141.454 569.546 164.218 C 569.546 186.982 551.092 205.436 528.328 205.436 C 505.564 205.436 487.11 186.982 487.11 164.218 Z  M 549.833 171.386 C 553.792 171.386 557.001 168.177 557.001 164.218 C 557.001 160.259 553.792 157.049 549.833 157.049 C 545.874 157.049 542.665 160.259 542.665 164.218 C 542.665 168.177 545.874 171.386 549.833 171.386 Z  M 528.328 171.386 C 532.287 171.386 535.496 168.177 535.496 164.218 C 535.496 160.259 532.287 157.049 528.328 157.049 C 524.369 157.049 521.16 160.259 521.16 164.218 C 521.16 168.177 524.369 171.386 528.328 171.386 Z  M 506.823 171.386 C 510.782 171.386 513.991 168.177 513.991 164.218 C 513.991 160.259 510.782 157.049 506.823 157.049 C 502.864 157.049 499.655 160.259 499.655 164.218 C 499.655 168.177 502.864 171.386 506.823 171.386 Z " fill-rule="evenodd" fill="rgb(255,255,255)"/><path d=" M 470.7 286.512 L 497.025 286.464 L 496.784 296.704 L 489.587 296.994 L 487.751 319.889 L 477.559 320.42 L 477.608 297.525 L 470.411 297.912 L 470.7 286.512 Z  M 498.547 287.672 L 511.395 286.995 L 508.738 319.889 L 498.547 320.42 L 498.547 287.672 Z  M 512.264 286.512 L 538.589 286.464 L 538.348 296.704 L 531.151 296.994 L 529.315 319.889 L 519.123 320.42 L 519.172 297.525 L 511.975 297.912 L 512.264 286.512 Z  M 561.146 307.234 L 561.146 307.234 L 560.132 317.957 L 539.797 319.551 L 539.797 319.551 Q 539.942 311.122 540.123 302.79 L 540.123 302.79 L 540.123 302.79 Q 540.304 294.458 540.569 286.029 L 540.569 286.029 L 553.128 286.029 L 553.128 286.029 Q 552.573 291.318 552.065 296.595 L 552.065 296.595 L 552.065 296.595 Q 551.558 301.872 551.341 307.234 L 551.341 307.234 L 551.341 307.234 Q 552.476 307.282 553.587 307.282 L 553.587 307.282 L 553.587 307.282 Q 554.698 307.282 555.833 307.282 L 555.833 307.282 L 555.833 307.282 Q 557.185 307.282 558.49 307.258 L 558.49 307.258 L 558.49 307.258 Q 559.794 307.234 561.146 307.234 Z  M 562.885 286.174 L 585.152 286.174 L 585.152 286.174 Q 585.007 288.444 584.887 290.666 L 584.887 290.666 L 584.887 290.666 Q 584.766 292.888 584.573 295.158 L 584.573 295.158 L 574.333 295.69 L 574.091 298.733 L 581.288 298.733 L 580.757 306.22 L 573.511 306.461 L 573.27 309.987 L 579.259 309.987 L 583.51 309.987 L 583.51 309.987 Q 583.365 312.644 583.208 315.264 L 583.208 315.264 L 583.208 315.264 Q 583.051 317.885 582.93 320.517 L 582.93 320.517 L 562.112 321 L 562.885 286.174 Z  M 479.31 258.69 L 479.31 258.69 L 479.31 258.69 Q 479.31 261.999 478.163 264.474 L 478.163 264.474 L 478.163 264.474 Q 477.016 266.95 475.023 268.592 L 475.023 268.592 L 475.023 268.592 Q 473.031 270.234 470.362 271.056 L 470.362 271.056 L 470.362 271.056 Q 467.694 271.877 464.626 271.877 L 464.626 271.877 L 464.626 271.877 Q 463.443 271.877 462.03 271.563 L 462.03 271.563 L 462.03 271.563 Q 460.617 271.249 459.168 270.778 L 459.168 270.778 L 459.168 270.778 Q 457.719 270.307 456.379 269.764 L 456.379 269.764 L 456.379 269.764 Q 455.038 269.22 454 268.737 L 454 268.737 L 455.063 258.787 L 455.063 258.787 Q 457.115 260.019 459.615 260.659 L 459.615 260.659 L 459.615 260.659 Q 462.115 261.299 464.53 261.299 L 464.53 261.299 L 464.53 261.299 Q 464.989 261.299 465.641 261.262 L 465.641 261.262 L 465.641 261.262 Q 466.293 261.226 466.885 261.045 L 466.885 261.045 L 466.885 261.045 Q 467.476 260.864 467.887 260.502 L 467.887 260.502 L 467.887 260.502 Q 468.297 260.139 468.297 259.463 L 468.297 259.463 L 468.297 259.463 Q 468.297 259.004 468.008 258.678 L 468.008 258.678 L 468.008 258.678 Q 467.718 258.352 467.259 258.147 L 467.259 258.147 L 467.259 258.147 Q 466.8 257.942 466.22 257.833 L 466.22 257.833 L 466.22 257.833 Q 465.641 257.724 465.085 257.676 L 465.085 257.676 L 465.085 257.676 Q 464.53 257.628 464.047 257.628 L 464.047 257.628 L 464.047 257.628 Q 463.564 257.628 463.274 257.628 L 463.274 257.628 L 463.274 257.628 Q 461.197 257.628 459.494 256.903 L 459.494 256.903 L 459.494 256.903 Q 457.792 256.179 456.572 254.886 L 456.572 254.886 L 456.572 254.886 Q 455.352 253.594 454.676 251.819 L 454.676 251.819 L 454.676 251.819 Q 454 250.044 454 247.967 L 454 247.967 L 454 247.967 Q 454 245.117 455.147 242.859 L 455.147 242.859 L 455.147 242.859 Q 456.294 240.601 458.214 239.019 L 458.214 239.019 L 458.214 239.019 Q 460.134 237.437 462.622 236.592 L 462.622 236.592 L 462.622 236.592 Q 465.109 235.747 467.766 235.747 L 467.766 235.747 L 467.766 235.747 Q 468.95 235.747 470.205 235.831 L 470.205 235.831 L 470.205 235.831 Q 471.461 235.916 472.705 236.133 L 472.705 236.133 L 472.705 236.133 Q 473.949 236.351 475.132 236.689 L 475.132 236.689 L 475.132 236.689 Q 476.316 237.027 477.378 237.534 L 477.378 237.534 L 476.46 247.339 L 476.46 247.339 Q 474.818 246.784 473.019 246.409 L 473.019 246.409 L 473.019 246.409 Q 471.22 246.035 469.505 246.035 L 469.505 246.035 L 469.505 246.035 Q 469.191 246.035 468.696 246.047 L 468.696 246.047 L 468.696 246.047 Q 468.201 246.059 467.657 246.12 L 467.657 246.12 L 467.657 246.12 Q 467.114 246.18 466.559 246.301 L 466.559 246.301 L 466.559 246.301 Q 466.003 246.422 465.568 246.627 L 465.568 246.627 L 465.568 246.627 Q 465.134 246.832 464.868 247.17 L 464.868 247.17 L 464.868 247.17 Q 464.602 247.508 464.626 247.967 L 464.626 247.967 L 464.626 247.967 Q 464.651 248.499 465.025 248.825 L 465.025 248.825 L 465.025 248.825 Q 465.399 249.151 465.991 249.332 L 465.991 249.332 L 465.991 249.332 Q 466.583 249.513 467.295 249.585 L 467.295 249.585 L 467.295 249.585 Q 468.008 249.658 468.708 249.67 L 468.708 249.67 L 468.708 249.67 Q 469.408 249.682 470.012 249.67 L 470.012 249.67 L 470.012 249.67 Q 470.616 249.658 471.002 249.706 L 471.002 249.706 L 471.002 249.706 Q 472.934 249.827 474.48 250.527 L 474.48 250.527 L 474.48 250.527 Q 476.026 251.228 477.1 252.387 L 477.1 252.387 L 477.1 252.387 Q 478.175 253.546 478.743 255.152 L 478.743 255.152 L 478.743 255.152 Q 479.31 256.758 479.31 258.69 Z  M 481.436 236.713 L 503.703 236.713 L 503.703 236.713 Q 503.558 238.983 503.437 241.205 L 503.437 241.205 L 503.437 241.205 Q 503.316 243.427 503.123 245.697 L 503.123 245.697 L 492.883 246.228 L 492.642 249.271 L 499.839 249.271 L 499.307 256.758 L 492.062 257 L 491.821 260.526 L 497.81 260.526 L 502.061 260.526 L 502.061 260.526 Q 501.916 263.182 501.759 265.803 L 501.759 265.803 L 501.759 265.803 Q 501.602 268.423 501.481 271.056 L 501.481 271.056 L 480.663 271.539 L 481.436 236.713 Z  M 525.753 257.773 L 525.753 257.773 L 524.738 268.496 L 504.403 270.09 L 504.403 270.09 Q 504.548 261.661 504.729 253.329 L 504.729 253.329 L 504.729 253.329 Q 504.91 244.997 505.176 236.568 L 505.176 236.568 L 517.735 236.568 L 517.735 236.568 Q 517.179 241.857 516.672 247.134 L 516.672 247.134 L 516.672 247.134 Q 516.165 252.411 515.947 257.773 L 515.947 257.773 L 515.947 257.773 Q 517.083 257.821 518.194 257.821 L 518.194 257.821 L 518.194 257.821 Q 519.304 257.821 520.44 257.821 L 520.44 257.821 L 520.44 257.821 Q 521.792 257.821 523.096 257.797 L 523.096 257.797 L 523.096 257.797 Q 524.4 257.773 525.753 257.773 Z  M 527.492 236.713 L 549.759 236.713 L 549.759 236.713 Q 549.614 238.983 549.493 241.205 L 549.493 241.205 L 549.493 241.205 Q 549.373 243.427 549.179 245.697 L 549.179 245.697 L 538.939 246.228 L 538.698 249.271 L 545.895 249.271 L 545.363 256.758 L 538.118 257 L 537.877 260.526 L 543.866 260.526 L 548.117 260.526 L 548.117 260.526 Q 547.972 263.182 547.815 265.803 L 547.815 265.803 L 547.815 265.803 Q 547.658 268.423 547.537 271.056 L 547.537 271.056 L 526.719 271.539 L 527.492 236.713 Z  M 574.514 237.582 L 574.514 237.582 L 573.161 247.774 L 573.161 247.774 Q 572.461 247.581 571.761 247.508 L 571.761 247.508 L 571.761 247.508 Q 571.06 247.436 570.36 247.436 L 570.36 247.436 L 570.36 247.436 Q 568.573 247.436 566.954 247.907 L 566.954 247.907 L 566.954 247.907 Q 565.336 248.378 564.093 249.344 L 564.093 249.344 L 564.093 249.344 Q 562.849 250.31 562.112 251.759 L 562.112 251.759 L 562.112 251.759 Q 561.376 253.208 561.376 255.164 L 561.376 255.164 L 561.376 255.164 Q 561.376 256.42 561.774 257.338 L 561.774 257.338 L 561.774 257.338 Q 562.173 258.256 562.897 258.859 L 562.897 258.859 L 562.897 258.859 Q 563.622 259.463 564.612 259.753 L 564.612 259.753 L 564.612 259.753 Q 565.602 260.043 566.785 260.043 L 566.785 260.043 L 566.785 260.043 Q 567.679 260.043 568.645 259.85 L 568.645 259.85 L 568.645 259.85 Q 569.611 259.656 570.553 259.342 L 570.553 259.342 L 570.553 259.342 Q 571.495 259.028 572.388 258.618 L 572.388 258.618 L 572.388 258.618 Q 573.282 258.207 574.031 257.773 L 574.031 257.773 L 573.065 269.124 L 573.065 269.124 Q 572.123 269.607 571.024 269.981 L 571.024 269.981 L 571.024 269.981 Q 569.925 270.355 568.766 270.633 L 568.766 270.633 L 568.766 270.633 Q 567.607 270.911 566.447 271.056 L 566.447 271.056 L 566.447 271.056 Q 565.288 271.201 564.225 271.201 L 564.225 271.201 L 564.225 271.201 Q 561.158 271.201 558.502 270.065 L 558.502 270.065 L 558.502 270.065 Q 555.845 268.93 553.889 266.95 L 553.889 266.95 L 553.889 266.95 Q 551.933 264.97 550.809 262.277 L 550.809 262.277 L 550.809 262.277 Q 549.686 259.584 549.686 256.468 L 549.686 256.468 L 549.686 256.468 Q 549.686 252.339 550.87 248.68 L 550.87 248.68 L 550.87 248.68 Q 552.053 245.021 554.348 242.268 L 554.348 242.268 L 554.348 242.268 Q 556.642 239.514 560.035 237.92 L 560.035 237.92 L 560.035 237.92 Q 563.428 236.326 567.848 236.326 L 567.848 236.326 L 567.848 236.326 Q 569.514 236.326 571.265 236.592 L 571.265 236.592 L 571.265 236.592 Q 573.016 236.858 574.514 237.582 Z  M 575.238 237.051 L 601.563 237.003 L 601.321 247.243 L 594.124 247.532 L 592.289 270.428 L 582.097 270.959 L 582.145 248.064 L 574.948 248.45 L 575.238 237.051 Z " fill-rule="evenodd" fill="rgb(255,255,255)"/></g></svg>